<svg width="127" height="17" viewBox="0 0 127 17" fill="none" xmlns="http://www.w3.org/2000/svg">
<path d="M22.46 3.72H21.46V12.72H22.46V16H14.9V12.72H15.86V5.72L12.46 16H9.5L6 5.82V12.72H6.96V16H0.4V12.72H1.4V3.72H0.4V0.439999H9.56L11.64 6.68L13.64 0.439999H22.46V3.72ZM23.2516 16V12.72H24.2516V3.72H23.2516V0.439999H36.7516V6.48H32.2716V3.72H29.8516V6.88H31.6116V9.16H29.8516V12.72H32.2716V9.56H36.7516V16H23.2516ZM59.5694 3.72H58.5694V12.72H59.5694V16H52.0094V12.72H52.9694V5.72L49.5694 16H46.6094L43.1094 5.82V12.72H44.0694V16H37.5094V12.72H38.5094V3.72H37.5094V0.439999H46.6694L48.7494 6.68L50.7494 0.439999H59.5694V3.72ZM66.5609 16.28C65.2809 16.28 64.0676 16.1733 62.9209 15.96C61.7876 15.7333 60.9143 15.48 60.3009 15.2V11.24H64.7009C64.7009 11.6533 64.7943 11.9533 64.9809 12.14C65.1676 12.3267 65.5076 12.42 66.0009 12.42C66.4143 12.42 66.7076 12.36 66.8809 12.24C67.0676 12.1067 67.1609 11.9133 67.1609 11.66C67.1609 11.4467 67.0743 11.2667 66.9009 11.12C66.7276 10.96 66.4276 10.8 66.0009 10.64L64.2809 10.04C62.8009 9.48 61.7343 8.82 61.0809 8.06C60.4409 7.3 60.1209 6.27333 60.1209 4.98C60.1209 3.40667 60.6343 2.21333 61.6609 1.4C62.7009 0.573332 64.4276 0.159999 66.8409 0.159999C68.0009 0.159999 69.0876 0.279999 70.1009 0.519999C71.1276 0.746666 71.9543 1.05333 72.5809 1.44V5.02H68.5809C68.5809 4.35333 68.1676 4.02 67.3409 4.02C66.9409 4.02 66.6543 4.07333 66.4809 4.18C66.3209 4.27333 66.2409 4.44667 66.2409 4.7C66.2409 4.92667 66.3343 5.10667 66.5209 5.24C66.7209 5.37333 67.0409 5.51333 67.4809 5.66L69.2209 6.26C70.6343 6.74 71.6609 7.36667 72.3009 8.14C72.9543 8.9 73.2809 9.9 73.2809 11.14C73.2809 12.8333 72.7076 14.1133 71.5609 14.98C70.4276 15.8467 68.7609 16.28 66.5609 16.28ZM91.3536 0.439999H97.9136V3.72H96.9136V16H91.2936L85.4336 6.98V12.72H86.3936V16H79.8336V12.72H80.8336V3.72H79.8336V0.439999H87.0536L92.3136 8.46V3.72H91.3536V0.439999ZM98.6813 16V12.72H99.6813V3.72H98.6813V0.439999H110.641V5.62H107.101V3.72H105.281V7.04H108.301V9.32H105.281V12.72H107.901V16H98.6813ZM126.238 5.28H122.798V3.72H121.518V12.72H122.918V16H114.518V12.72H115.918V3.72H114.638V5.28H111.198V0.439999H126.238V5.28Z" fill="url(#paint0_linear_159_308)"/>
<defs>
<linearGradient id="paint0_linear_159_308" x1="0" y1="-5" x2="123.559" y2="33.2965" gradientUnits="userSpaceOnUse">
<stop stop-color="#693ABB"/>
<stop offset="1" stop-color="#9970BE"/>
</linearGradient>
</defs>
</svg>
