<svg width="19" height="15" viewBox="0 0 19 15" fill="none" xmlns="http://www.w3.org/2000/svg">
<path d="M5.79892 15C12.7655 15 16.5764 9.22762 16.5764 4.23057C16.5764 4.06904 16.5764 3.90521 16.5695 3.74368C17.3114 3.20657 17.9518 2.54161 18.4605 1.77994C17.7675 2.08552 17.033 2.28692 16.281 2.3776C17.0732 1.90413 17.6664 1.15916 17.9506 0.281169C17.2064 0.722058 16.3918 1.03156 15.5426 1.19612C14.9717 0.588103 14.2162 0.18531 13.3932 0.0501327C12.5702 -0.085045 11.7256 0.054937 10.9902 0.448396C10.2548 0.841855 9.66964 1.46683 9.3254 2.22652C8.98116 2.98621 8.89704 3.83821 9.08605 4.65055C7.58006 4.57504 6.10677 4.18381 4.76172 3.50224C3.41667 2.82067 2.2299 1.86398 1.27839 0.694224C0.79535 1.52851 0.647935 2.51536 0.866084 3.45438C1.08423 4.39341 1.65159 5.21421 2.45294 5.75011C1.85245 5.72971 1.26515 5.56846 0.738422 5.27936V5.33128C0.739457 6.20525 1.04222 7.05206 1.59554 7.72857C2.14885 8.40508 2.91878 8.8698 3.77518 9.04416C3.45012 9.13371 3.11433 9.17836 2.77716 9.17685C2.53946 9.17757 2.30224 9.15555 2.06873 9.11108C2.31078 9.86342 2.78209 10.5212 3.41664 10.9923C4.05119 11.4634 4.8172 11.7242 5.60739 11.7383C4.26503 12.7926 2.60686 13.3644 0.899952 13.3616C0.599184 13.3629 0.298626 13.3456 0 13.3097C1.73242 14.4142 3.74437 15.0006 5.79892 15Z" fill="url(#paint0_linear_220_213)"/>
<defs>
<linearGradient id="paint0_linear_220_213" x1="0" y1="0" x2="19.5571" y2="1.586" gradientUnits="userSpaceOnUse">
<stop stop-color="#693ABB"/>
<stop offset="1" stop-color="#9970BE"/>
</linearGradient>
</defs>
</svg>
