<svg width="16" height="10" viewBox="0 0 16 10" fill="none" xmlns="http://www.w3.org/2000/svg">
<path fill-rule="evenodd" clip-rule="evenodd" d="M0.0444336 5.00002C0.0444336 4.85202 0.103226 4.71008 0.207878 4.60543C0.31253 4.50077 0.454469 4.44198 0.602469 4.44198H13.7643L10.252 0.93082C10.1472 0.826036 10.0884 0.683918 10.0884 0.53573C10.0884 0.387543 10.1472 0.245425 10.252 0.140641C10.3568 0.0358568 10.4989 -0.0230103 10.6471 -0.0230103C10.7953 -0.0230103 10.9374 0.0358568 11.0422 0.140641L15.5065 4.60493C15.5585 4.65676 15.5997 4.71834 15.6278 4.78614C15.656 4.85394 15.6704 4.92661 15.6704 5.00002C15.6704 5.07342 15.656 5.1461 15.6278 5.21389C15.5997 5.28169 15.5585 5.34327 15.5065 5.39511L11.0422 9.85939C10.9374 9.96418 10.7953 10.023 10.6471 10.023C10.4989 10.023 10.3568 9.96418 10.252 9.85939C10.1472 9.75461 10.0884 9.61249 10.0884 9.4643C10.0884 9.31611 10.1472 9.174 10.252 9.06921L13.7643 5.55805H0.602469C0.454469 5.55805 0.31253 5.49926 0.207878 5.39461C0.103226 5.28996 0.0444336 5.14802 0.0444336 5.00002Z" fill="white"/>
</svg>
